<?xml version="1.0" encoding="UTF-8"?>
<svg id="Layer_1" data-name="Layer 1" xmlns="http://www.w3.org/2000/svg" viewBox="0 0 2000 336.26">
  <defs>
    <style>
      .cls-1 {
        fill: #163642;
      }

      .cls-2 {
        fill: #54c5af;
      }

      .cls-3 {
        fill: #55c6ad;
      }

      .cls-4 {
        fill: #74e0c2;
      }

      .cls-5 {
        fill: #46b196;
      }
    </style>
  </defs>
  <g>
    <rect class="cls-1" x="411.54" y="64.36" width="235.11" height="43.58"/>
    <rect class="cls-1" x="507.6" y="130.18" width="43.29" height="141.72"/>
    <path class="cls-1" d="M855.96,64.36h43.29v207.54h-43.29v-82.13h-148.24v82.13h-43.29V64.36h43.29v82.13h148.24V64.36Z"/>
    <path class="cls-1" d="M917.04,271.9V126.03h43.29v43.88h131.05c6.92,0,11.61-2.18,14.08-6.53,2.47-4.34,3.71-9.88,3.71-16.6v-21.05c.39-14.63-5.14-21.94-16.6-21.94h-175.52v-39.43h188.27c7.51,0,14.87,1.68,22.09,5.04,7.21,3.36,13.14,8.25,17.79,14.68,4.64,6.42,7.07,13.79,7.27,22.09v57.52c-.4,12.85-4.25,23.67-11.56,32.46-7.31,8.8-17.1,13.19-29.35,13.19l40.91,62.56h-49.51l-40.62-62.56h-101.99v62.56h-43.29Z"/>
    <path class="cls-1" d="M1170.23,64.36h43.58v207.54h-43.58V64.36Z"/>
    <path class="cls-1" d="M1517.11,64.36h43.29V232.47h179.97v39.43h-223.25V64.36Z"/>
    <path class="cls-1" d="M1771.04,262.26c-8.4-6.42-12.7-15.86-12.9-28.32v-23.72h43.29v5.93c.59,6.13,1.97,10.28,4.15,12.45,2.17,2.18,5.44,3.46,9.79,3.85h121.26c3.95,0,6.92-.34,8.89-1.04,1.97-.69,3.56-2.37,4.75-5.04,1.18-2.67,1.78-6.97,1.78-12.9v-6.82c0-5.93-.59-10.23-1.78-12.9-1.19-2.67-2.77-4.35-4.75-5.04-1.98-.69-4.94-1.04-8.89-1.04l-135.79,.3c-7.31,0-14.18-1.68-20.61-5.04-6.43-3.36-11.66-8.2-15.71-14.53-4.05-6.32-6.18-13.74-6.37-22.24v-40.02c.19-8.5,2.32-15.91,6.37-22.24,4.05-6.32,9.29-11.16,15.71-14.53,6.42-3.36,13.29-5.04,20.61-5.04h151.21c11.46,0,21.24,2.97,29.35,8.9,8.1,5.93,12.16,16.01,12.16,30.24v22.53h-41.51v-1.78c0-6.32-.55-10.97-1.63-13.93-1.09-2.97-2.62-4.79-4.6-5.49-1.98-.69-5.04-1.04-9.19-1.04h-121.26c-6.13,.4-9.98,2.47-11.56,6.23-1.58,3.76-2.37,9.09-2.37,16.01s.74,12.26,2.22,16.01c1.48,3.76,5.09,5.83,10.82,6.22h137.57c11.46,0,21.24,2.97,29.35,8.9,8.1,5.93,12.16,16.01,12.16,30.24v45.36c0,14.23-4.05,24.31-12.16,30.24-8.11,5.93-17.89,8.89-29.35,8.89h-150.61c-11.86,0-21.99-3.21-30.39-9.63Z"/>
    <g>
      <polygon class="cls-2" points="1396.14 64.36 1334.77 64.36 1228.63 271.9 1279.33 271.9 1344.27 144.93 1365.46 104.08 1392.39 156.17 1431.42 232.46 1385.18 232.46 1385.18 211.45 1345.74 211.45 1345.74 271.9 1376.18 271.9 1385.18 271.9 1451.59 271.9 1458.85 271.9 1502.29 271.9 1396.14 64.36"/>
      <circle class="cls-1" cx="1365.46" cy="179.74" r="17.04" transform="translate(676.86 1372.48) rotate(-67.5)"/>
    </g>
  </g>
  <g>
    <g>
      <path class="cls-1" d="M258.48,10.01h-93.92V75.25h92.88v185.76h-92.88v65.24h93.92c35.46,0,64.2-28.75,64.2-64.2V74.21c0-35.46-28.75-64.2-64.2-64.2Z"/>
      <path class="cls-4" d="M71.68,75.25h0V10.01h-1.04C35.19,10.01,6.44,38.75,6.44,74.21v1.22H71.68v-.18Z"/>
      <path class="cls-4" d="M6.44,260.83v1.22c0,35.46,28.75,64.2,64.2,64.2h1.04v-65.24h0v-.18H6.44Z"/>
      <rect class="cls-5" x="6.44" y="168.13" width="65.24" height="92.7"/>
      <rect class="cls-3" x="6.44" y="75.43" width="65.24" height="92.7"/>
      <polygon class="cls-3" points="71.69 10.01 71.69 75.25 85.51 75.25 164.57 75.25 164.57 10.01 85.51 10.01 71.69 10.01"/>
      <polygon class="cls-5" points="71.69 261.01 71.69 326.25 85.51 326.25 164.57 326.25 164.57 261.01 85.51 261.01 71.69 261.01"/>
    </g>
    <circle class="cls-1" cx="164.57" cy="168.13" r="36.77"/>
  </g>
</svg>